<svg width="374" height="556" viewBox="0 0 374 556" fill="none" xmlns="http://www.w3.org/2000/svg">
<path d="M44.8613 49.5585C77.4794 15.4709 126.363 -3.2326 190.445 0.460812C265.43 4.78271 314.478 38.3207 342.722 82.0087C369.993 124.192 376.386 173.412 372.309 209.32C366.185 263.248 348.749 294.041 328.482 335.74C309.413 374.976 300.869 397.986 294.396 421.188C285.862 451.782 269.704 517.694 207.82 542.909C177.12 555.418 140.011 559.78 105.093 549.253C69.1109 538.405 37.7243 512.339 19.957 468.838C13.6923 453.499 21.0475 435.986 36.3857 429.722C51.7242 423.457 69.2372 430.813 75.502 446.151C86.5052 473.091 103.969 486.246 122.412 491.807C141.919 497.688 164.81 495.645 185.18 487.345C215.521 474.981 226.332 441.883 236.604 405.065C244.293 377.502 254.331 351.049 274.518 309.514C295.826 265.671 307.941 244.384 312.691 202.551C315.494 177.868 310.782 143.118 292.334 114.583C274.859 87.5524 243.575 63.6233 186.992 60.3622C136.881 57.4741 106.405 72.0276 88.2119 91.0399C69.3964 110.703 60 139.033 60 169.716C60.0001 189.05 68.438 208.551 81.9775 221.223C94.7366 233.163 111.971 239.21 133.282 233.477C149.282 229.174 165.741 238.655 170.045 254.654C174.349 270.654 164.868 287.114 148.868 291.418C106.022 302.943 67.7188 290.055 40.9795 265.031C15.0209 240.738 0.00021284 205.243 7.09132e-10 169.717C-0.000110296 127.608 12.8661 82.9952 44.8613 49.5585Z" fill="white"/>
</svg>
