<svg width="605" height="467" viewBox="0 0 605 467" fill="none" xmlns="http://www.w3.org/2000/svg">
<path d="M7.24993 124.993C86.5372 11.8948 201.869 -3.48652 280.202 0.565966C326.573 2.96498 380.575 15.8756 429.876 38.8119C478.905 61.6221 526.824 96.0292 556.549 143.834C583.711 187.517 599.672 226.797 604.412 297.271C605.992 320.754 602.314 349.495 597.842 373.944C593.251 399.043 587.127 423.252 582.141 439.017C575.48 460.08 553.005 471.755 531.942 465.094C510.879 458.433 499.203 435.958 505.865 414.895C509.721 402.699 515.082 381.776 519.148 359.549C523.333 336.672 525.484 315.893 524.593 302.64C520.791 246.115 509.328 219.394 488.612 186.077C469.836 155.882 436.643 130.194 396.13 111.346C355.888 92.6246 311.918 82.3131 276.069 80.4584C210.969 77.0906 129.469 90.017 72.7551 170.915C60.0739 189.004 35.1304 193.388 17.0414 180.707C-1.04769 168.026 -5.43139 143.082 7.24993 124.993Z" fill="#064AC2"/>
</svg>
