<svg width="36" height="36" viewBox="0 0 36 36" fill="none" xmlns="http://www.w3.org/2000/svg">
<path d="M31.9792 35.2677L8.4004 11.9162C7.94372 11.465 7.71538 10.9247 7.71538 10.2953C7.71538 9.66597 7.93771 9.12568 8.38237 8.67444C8.81501 8.2232 9.35581 7.99758 10.0048 7.99758C10.6657 7.99758 11.2246 8.2232 11.6812 8.67444L35.26 32.026C35.7167 32.4891 35.945 33.0294 35.945 33.6468C35.945 34.2762 35.7227 34.8165 35.2781 35.2677C34.8454 35.719 34.2986 35.9446 33.6376 35.9446C32.9887 35.9565 32.4359 35.7309 31.9792 35.2677ZM16.3141 17.527L17.3416 16.5295L10.7799 10.0281C10.6357 9.88565 10.4614 9.81441 10.2571 9.81441C10.0649 9.81441 9.8966 9.88565 9.75239 10.0281C9.60818 10.1706 9.53607 10.3428 9.53607 10.5447C9.53607 10.7347 9.60818 10.895 9.75239 11.0256L16.3141 17.527ZM26.1746 13.8577C25.9944 13.8577 25.8501 13.8102 25.742 13.7152C25.6338 13.6202 25.5737 13.4896 25.5617 13.3234C25.3815 12.2546 25.1772 11.3819 24.9488 10.705C24.7325 10.0163 24.42 9.47004 24.0114 9.0663C23.6148 8.65069 23.074 8.33601 22.389 8.12227C21.704 7.89665 20.8087 7.69478 19.7031 7.51666C19.3305 7.45729 19.1442 7.26729 19.1442 6.94668C19.1442 6.59044 19.3305 6.38857 19.7031 6.34107C20.8207 6.1867 21.716 5.9967 22.389 5.77108C23.074 5.53359 23.6148 5.21298 24.0114 4.80924C24.408 4.4055 24.7145 3.8652 24.9308 3.18835C25.1471 2.49962 25.3574 1.61495 25.5617 0.53436C25.6218 0.17812 25.8261 0 26.1746 0C26.4871 0 26.6794 0.184057 26.7515 0.552172C26.9197 1.60902 27.118 2.4818 27.3464 3.17053C27.5747 3.84739 27.8871 4.39362 28.2837 4.80924C28.6803 5.21298 29.2211 5.53359 29.9061 5.77108C30.6032 5.9967 31.5105 6.1867 32.6281 6.34107C32.9887 6.38857 33.1689 6.59044 33.1689 6.94668C33.1689 7.27917 32.9887 7.46916 32.6281 7.51666C31.4985 7.6829 30.5911 7.87884 29.9061 8.10445C29.2211 8.33007 28.6803 8.64475 28.2837 9.04849C27.8992 9.45223 27.5987 10.0044 27.3824 10.705C27.1661 11.3937 26.9558 12.2725 26.7515 13.3412C26.7274 13.4955 26.6553 13.6202 26.5352 13.7152C26.427 13.8102 26.3068 13.8577 26.1746 13.8577ZM5.19166 28.4992C4.89122 28.4992 4.71696 28.3389 4.66889 28.0183C4.53669 27.1752 4.41051 26.5102 4.29033 26.0233C4.18217 25.5365 4.0019 25.1683 3.74953 24.919C3.50918 24.6577 3.13062 24.4559 2.61386 24.3134C2.10911 24.1709 1.39406 24.0284 0.468692 23.8859C0.156231 23.8265 0 23.6543 0 23.3693C0 23.0725 0.162239 22.9003 0.486718 22.8528C1.40007 22.7103 2.10911 22.5737 2.61386 22.4431C3.13062 22.3006 3.50918 22.0987 3.74953 21.8375C4.0019 21.5763 4.18217 21.2022 4.29033 20.7153C4.41051 20.2166 4.53669 19.5516 4.66889 18.7204C4.71696 18.3998 4.89122 18.2395 5.19166 18.2395C5.4921 18.2395 5.66636 18.3998 5.71443 18.7204C5.84663 19.5516 5.97281 20.2107 6.09299 20.6975C6.21317 21.1844 6.39343 21.5584 6.63379 21.8197C6.87414 22.0809 7.24669 22.2828 7.75144 22.4253C8.2682 22.5678 8.98926 22.7103 9.91463 22.8528C10.2271 22.9003 10.3833 23.0725 10.3833 23.3693C10.3833 23.6543 10.2271 23.8265 9.91463 23.8859C8.98926 24.0284 8.27421 24.1709 7.76946 24.3134C7.26472 24.444 6.88616 24.6399 6.63379 24.9012C6.39343 25.1505 6.21317 25.5246 6.09299 26.0233C5.97281 26.5102 5.84663 27.1752 5.71443 28.0183C5.66636 28.3389 5.4921 28.4992 5.19166 28.4992ZM11.2847 33.629C11.0683 33.629 10.9241 33.4984 10.852 33.2372C10.7198 32.5841 10.5996 32.1091 10.4915 31.8122C10.3953 31.5035 10.197 31.2897 9.8966 31.171C9.60818 31.0522 9.08541 30.9157 8.32829 30.7613C8.08793 30.7138 7.96776 30.5772 7.96776 30.3516C7.96776 30.126 8.09394 29.9835 8.34632 29.9241C9.09142 29.8054 9.61419 29.6866 9.91463 29.5679C10.2151 29.4373 10.4134 29.2235 10.5095 28.9267C10.6056 28.6179 10.7198 28.1311 10.852 27.4661C10.9241 27.2048 11.0683 27.0742 11.2847 27.0742C11.525 27.0742 11.6692 27.1989 11.7173 27.4483C11.8375 28.1251 11.9456 28.612 12.0418 28.9089C12.1379 29.2057 12.3362 29.4135 12.6366 29.5323C12.9491 29.651 13.4839 29.7816 14.241 29.9241C14.4814 29.9716 14.6015 30.1141 14.6015 30.3516C14.6015 30.5772 14.4754 30.7138 14.223 30.7613C13.4779 30.9157 12.9491 31.0522 12.6366 31.171C12.3242 31.2897 12.1199 31.5035 12.0237 31.8122C11.9276 32.1091 11.8254 32.5841 11.7173 33.2372C11.6692 33.4984 11.525 33.629 11.2847 33.629Z" fill="#679BF0"/>
<path d="M32.0341 35.2545L8.45527 11.903C7.9986 11.4518 7.77026 10.9115 7.77026 10.2821C7.77026 9.65276 7.99259 9.11247 8.43725 8.66123C8.86989 8.20999 9.41068 7.98438 10.0596 7.98438C10.7206 7.98438 11.2794 8.20999 11.7361 8.66123L35.3149 32.0127C35.7716 32.4759 35.9999 33.0162 35.9999 33.6336C35.9999 34.263 35.7776 34.8033 35.3329 35.2545C34.9003 35.7058 34.3535 35.9314 33.6925 35.9314C33.0436 35.9433 32.4907 35.7176 32.0341 35.2545ZM16.369 17.5138L17.3965 16.5163L10.8348 10.0149C10.6906 9.87245 10.5163 9.8012 10.312 9.8012C10.1197 9.8012 9.95148 9.87245 9.80727 10.0149C9.66306 10.1574 9.59095 10.3296 9.59095 10.5315C9.59095 10.7215 9.66306 10.8818 9.80727 11.0124L16.369 17.5138Z" fill="#404040"/>
</svg>
