<svg width="36" height="41" viewBox="0 0 36 41" fill="none" xmlns="http://www.w3.org/2000/svg">
<path d="M0 19.3576C0 17.3279 0.381925 15.4291 1.14578 13.6613C1.91906 11.8842 2.98468 10.3221 4.34263 8.97523C5.70059 7.61898 7.27544 6.56204 9.06719 5.80441C10.8589 5.04678 12.778 4.66797 14.8244 4.66797C16.8707 4.66797 18.7898 5.04678 20.5815 5.80441C22.3733 6.56204 23.9434 7.61898 25.2919 8.97523C26.6499 10.3221 27.7155 11.8842 28.4888 13.6613C29.2621 15.4291 29.6487 17.3279 29.6487 19.3576C29.6487 20.9196 29.4035 22.4115 28.9132 23.8332C28.4322 25.2549 27.7674 26.5504 26.9187 27.7195L35.2079 35.9833C35.4719 36.2545 35.6699 36.5539 35.802 36.8812C35.934 37.218 36 37.564 36 37.9195C36 38.4339 35.8821 38.9016 35.6464 39.3225C35.4106 39.7434 35.0853 40.0754 34.6703 40.3186C34.2554 40.5618 33.7792 40.6834 33.2416 40.6834C32.8739 40.6834 32.5155 40.6179 32.1666 40.487C31.8177 40.356 31.5159 40.1596 31.2613 39.8977L22.9014 31.5919C21.7415 32.3682 20.4778 32.9715 19.1104 33.4017C17.7525 33.8414 16.3238 34.0612 14.8244 34.0612C12.778 34.0612 10.8589 33.6777 9.06719 32.9107C7.27544 32.1531 5.70059 31.1008 4.34263 29.7539C2.98468 28.407 1.91906 26.845 1.14578 25.0678C0.381925 23.2907 0 21.3872 0 19.3576ZM3.77682 19.3576C3.77682 20.8635 4.06444 22.2805 4.63969 23.6087C5.21493 24.9369 6.00707 26.1014 7.01611 27.1022C8.02515 28.103 9.1945 28.8887 10.5242 29.4593C11.8633 30.0298 13.2967 30.3151 14.8244 30.3151C16.3426 30.3151 17.7666 30.0298 19.0963 29.4593C20.4354 28.8887 21.6094 28.103 22.6185 27.1022C23.6369 26.1014 24.4291 24.9369 24.9949 23.6087C25.5701 22.2805 25.8578 20.8635 25.8578 19.3576C25.8578 17.8516 25.5701 16.4393 24.9949 15.1204C24.4291 13.7923 23.6369 12.6277 22.6185 11.6269C21.6094 10.6168 20.4354 9.82639 19.0963 9.25583C17.7666 8.68527 16.3426 8.39999 14.8244 8.39999C13.2967 8.39999 11.8633 8.68527 10.5242 9.25583C9.1945 9.82639 8.02515 10.6168 7.01611 11.6269C6.00707 12.6277 5.21493 13.7923 4.63969 15.1204C4.06444 16.4393 3.77682 17.8516 3.77682 19.3576Z" fill="#404040"/>
<path d="M20.6733 1.25684C21.0968 1.28849 21.5412 1.43682 21.9116 1.78125C22.318 2.15935 22.4973 2.64593 22.5698 3.07715L22.5718 3.08789L22.5728 3.09766C22.7799 4.46733 23.0016 5.61166 23.2349 6.53711C23.4586 7.42484 23.7345 8.12288 24.0435 8.65625C24.3487 9.13772 24.7332 9.53148 25.2046 9.8457L25.4038 9.9668C25.8902 10.2461 26.5223 10.4981 27.3228 10.707H27.3218C28.0373 10.8904 28.8875 11.059 29.8765 11.2109L30.9136 11.3574L30.9546 11.3633L30.9956 11.3711C31.4327 11.4578 31.9123 11.6543 32.2798 12.0674C32.6592 12.494 32.7934 13.0097 32.7935 13.4863C32.7935 13.9594 32.6607 14.491 32.2544 14.9209C31.8639 15.334 31.362 15.5014 30.9243 15.5605L30.9253 15.5615C29.4596 15.7668 28.2739 15.9942 27.355 16.2383L27.3442 16.2402L27.3345 16.2432C26.4527 16.4618 25.7906 16.7427 25.3101 17.0576L25.1431 17.1777C24.7616 17.4693 24.443 17.8319 24.1841 18.2754L24.1802 18.2822L24.1763 18.2881C23.8672 18.8036 23.5803 19.5057 23.3364 20.4248C23.0831 21.3795 22.826 22.5506 22.5659 23.9434L22.5601 23.9766L22.5513 24.0098C22.452 24.4179 22.2559 24.8656 21.8696 25.2129C21.4629 25.5784 20.9686 25.7226 20.4937 25.7227C19.9969 25.7227 19.484 25.5749 19.0601 25.2012L19.0327 25.1768L19.0063 25.1514C18.6526 24.8005 18.4357 24.3622 18.3608 23.8799L18.3599 23.873C18.1009 22.1433 17.8123 20.7574 17.5005 19.6992L17.4946 19.6777C17.217 18.6679 16.8248 17.9638 16.3716 17.4893L16.3599 17.4756C15.9365 17.0197 15.284 16.6203 14.312 16.334L14.2944 16.3281C13.2791 16.0134 11.8837 15.754 10.0786 15.5664L10.0444 15.5635L10.0103 15.5576C9.57956 15.4887 9.08806 15.3185 8.70068 14.9219C8.29055 14.502 8.14014 13.9762 8.14014 13.4863C8.14016 12.999 8.2829 12.4776 8.67432 12.0518C9.04928 11.6439 9.53404 11.4532 9.97217 11.3691L10.0093 11.3623L10.0464 11.3574C11.4958 11.1692 12.6765 10.9583 13.5991 10.7295C14.4868 10.492 15.1444 10.209 15.6108 9.90625C16.0861 9.5919 16.4624 9.19897 16.7515 8.71973C17.0631 8.18486 17.3415 7.48304 17.5669 6.58887L17.5688 6.58105L17.5708 6.57422C17.8254 5.61478 18.0916 4.43078 18.3696 3.01758L18.3755 2.99023L18.3823 2.96289C18.486 2.53687 18.6973 2.08109 19.106 1.73535C19.5264 1.37974 20.0262 1.25 20.4937 1.25L20.6733 1.25684Z" fill="#679BF0" stroke="white" stroke-width="2.5"/>
</svg>
