<svg width="20" height="20" viewBox="0 0 20 20" fill="none" xmlns="http://www.w3.org/2000/svg">
<path d="M8.62013 0.953521C9.17537 -0.31784 10.9513 -0.31784 11.5065 0.953521L13.6323 5.82056C13.6328 5.82164 13.6331 5.82287 13.6336 5.82395L18.5285 6.16753C19.8931 6.26329 20.4994 7.95741 19.5146 8.9227L15.7434 12.6193C15.7101 12.6519 15.6753 12.682 15.6403 12.711C15.6611 12.7718 15.679 12.8346 15.693 12.8997L16.7985 18.0479C17.0918 19.4138 15.6465 20.4817 14.4598 19.776L9.99986 17.1237L5.54048 19.776C4.35371 20.4818 2.9082 19.4138 3.20144 18.0479L4.30697 12.8997C4.32093 12.8347 4.33895 12.772 4.35965 12.7112C4.32463 12.6822 4.28993 12.652 4.2566 12.6193L0.48541 8.9227C-0.499355 7.95742 0.106964 6.26333 1.47144 6.16753L6.49696 5.81481L8.62013 0.953521Z" fill="#075DF2"/>
</svg>
