<?xml version="1.0" encoding="UTF-8"?>
<!-- Generated by Pixelmator Pro 3.7.1 -->
<svg width="3300" height="2200" viewBox="0 0 3300 2200" xmlns="http://www.w3.org/2000/svg">
    <g id="Notes">
        <path id="artboard" fill="#ffffff" stroke="none" d="M 0 0 L 3300 0 L 3300 2200 L 0 2200 Z"/>
        <path id="path1" fill="none" stroke="#000000" stroke-width="0.5" d="M 263 292 L 3036 292"/>
        <text id="WeightScale-Variations" xml:space="preserve" x="261" y="326" font-family="Helvetica" font-size="13" font-weight="700" fill="#000000">Weight/Scale Variations</text>
        <text id="Ultralight" xml:space="preserve" x="531" y="325" font-family="Helvetica" font-size="13" fill="#000000">Ultralight</text>
        <text id="Thin" xml:space="preserve" x="840" y="326" font-family="Helvetica" font-size="13" fill="#000000">Thin</text>
        <text id="Light" xml:space="preserve" x="1137" y="326" font-family="Helvetica" font-size="13" fill="#000000">Light</text>
        <text id="Regular" xml:space="preserve" x="1424" y="326" font-family="Helvetica" font-size="13" fill="#000000">Regular</text>
        <text id="Medium" xml:space="preserve" x="1721" y="326" font-family="Helvetica" font-size="13" fill="#000000">Medium</text>
        <text id="Semibold" xml:space="preserve" x="2014" y="326" font-family="Helvetica" font-size="13" fill="#000000">Semibold</text>
        <text id="Bold" xml:space="preserve" x="2324" y="326" font-family="Helvetica" font-size="13" fill="#000000">Bold</text>
        <text id="Heavy" xml:space="preserve" x="2616" y="326" font-family="Helvetica" font-size="13" fill="#000000">Heavy</text>
        <text id="Black" xml:space="preserve" x="2914" y="326" font-family="Helvetica" font-size="13" fill="#000000">Black</text>
        <path id="path2" fill="none" stroke="#000000" stroke-width="0.5" d="M 263 1903 L 3036 1903"/>
        <g id="g1">
            <path id="path3" fill="#000000" stroke="none" d="M 272.248047 1933.830078 C 276.603516 1933.830078 280.138672 1930.304688 280.138672 1925.949219 C 280.138672 1921.59375 276.603516 1918.068359 272.248047 1918.068359 C 267.902344 1918.068359 264.367188 1921.59375 264.367188 1925.949219 C 264.367188 1930.304688 267.902344 1933.830078 272.248047 1933.830078 Z M 272.248047 1932.345703 C 268.712891 1932.345703 265.861328 1929.484375 265.861328 1925.949219 C 265.861328 1922.414063 268.712891 1919.552734 272.248047 1919.552734 C 275.783203 1919.552734 278.644531 1922.414063 278.644531 1925.949219 C 278.644531 1929.484375 275.783203 1932.345703 272.248047 1932.345703 Z M 272.970703 1928.791016 L 272.970703 1923.097656 C 272.970703 1922.648438 272.677734 1922.345703 272.228516 1922.345703 C 271.798828 1922.345703 271.505859 1922.648438 271.505859 1923.097656 L 271.505859 1928.791016 C 271.505859 1929.230469 271.798828 1929.533203 272.228516 1929.533203 C 272.677734 1929.533203 272.970703 1929.230469 272.970703 1928.791016 Z M 269.40625 1926.671875 L 275.089844 1926.671875 C 275.529297 1926.671875 275.832031 1926.378906 275.832031 1925.949219 C 275.832031 1925.509766 275.529297 1925.207031 275.089844 1925.207031 L 269.40625 1925.207031 C 268.957031 1925.207031 268.654297 1925.509766 268.654297 1925.949219 C 268.654297 1926.378906 268.957031 1926.671875 269.40625 1926.671875 Z"/>
        </g>
        <g id="g2">
            <path id="path4" fill="#000000" stroke="none" d="M 293.214966 1935.910156 C 298.713013 1935.910156 303.175934 1931.447266 303.175934 1925.949219 C 303.175934 1920.451172 298.713013 1915.988281 293.214966 1915.988281 C 287.716949 1915.988281 283.254028 1920.451172 283.254028 1925.949219 C 283.254028 1931.447266 287.716949 1935.910156 293.214966 1935.910156 Z M 293.214966 1934.25 C 288.625153 1934.25 284.914215 1930.539063 284.914215 1925.949219 C 284.914215 1921.359375 288.625153 1917.648438 293.214966 1917.648438 C 297.80481 1917.648438 301.515747 1921.359375 301.515747 1925.949219 C 301.515747 1930.539063 297.80481 1934.25 293.214966 1934.25 Z M 294.025513 1929.630859 L 294.025513 1922.248047 C 294.025513 1921.75 293.683716 1921.408203 293.195435 1921.408203 C 292.716919 1921.408203 292.384888 1921.75 292.384888 1922.248047 L 292.384888 1929.630859 C 292.384888 1930.119141 292.716919 1930.460938 293.195435 1930.460938 C 293.683716 1930.460938 294.025513 1930.128906 294.025513 1929.630859 Z M 289.513794 1926.75 L 296.906372 1926.75 C 297.394653 1926.75 297.73645 1926.427734 297.73645 1925.949219 C 297.73645 1925.460938 297.394653 1925.119141 296.906372 1925.119141 L 289.513794 1925.119141 C 289.015747 1925.119141 288.683716 1925.460938 288.683716 1925.949219 C 288.683716 1926.427734 289.015747 1926.75 289.513794 1926.75 Z"/>
        </g>
        <g id="g3">
            <path id="path5" fill="#000000" stroke="none" d="M 319.894714 1938.664063 C 326.916168 1938.664063 332.619293 1932.970703 332.619293 1925.949219 C 332.619293 1918.927734 326.916168 1913.224609 319.894714 1913.224609 C 312.87323 1913.224609 307.179871 1918.927734 307.179871 1925.949219 C 307.179871 1932.970703 312.87323 1938.664063 319.894714 1938.664063 Z M 319.894714 1936.847656 C 313.869293 1936.847656 308.996246 1931.974609 308.996246 1925.949219 C 308.996246 1919.923828 313.869293 1915.050781 319.894714 1915.050781 C 325.920105 1915.050781 330.793152 1919.923828 330.793152 1925.949219 C 330.793152 1931.974609 325.920105 1936.847656 319.894714 1936.847656 Z M 320.783386 1930.783203 L 320.783386 1921.085938 C 320.783386 1920.539063 320.412292 1920.158203 319.875153 1920.158203 C 319.357605 1920.158203 318.986481 1920.539063 318.986481 1921.085938 L 318.986481 1930.783203 C 318.986481 1931.320313 319.357605 1931.701172 319.875153 1931.701172 C 320.412292 1931.701172 320.783386 1931.330078 320.783386 1930.783203 Z M 315.041199 1926.828125 L 324.738464 1926.828125 C 325.275574 1926.828125 325.656433 1926.466797 325.656433 1925.949219 C 325.656433 1925.402344 325.285339 1925.03125 324.738464 1925.03125 L 315.041199 1925.03125 C 314.494324 1925.03125 314.12323 1925.402344 314.12323 1925.949219 C 314.12323 1926.466797 314.494324 1926.828125 315.041199 1926.828125 Z"/>
        </g>
        <text id="Design-Variations" xml:space="preserve" x="261" y="1957" font-family="Helvetica" font-size="13" font-weight="700" fill="#000000">Design Variations</text>
        <text id="Symbols-are-supported-in" xml:space="preserve" x="261" y="1975" font-family="Helvetica" font-size="13" fill="#000000">Symbols are supported in up to nine weights and three scales.</text>
        <text id="For-optimal-layout-with" xml:space="preserve" x="261" y="1993" font-family="Helvetica" font-size="13" fill="#000000">For optimal layout with text and other symbols, vertically align</text>
        <text id="symbols-with-the-adjacent" xml:space="preserve" x="261" y="2011" font-family="Helvetica" font-size="13" fill="#000000">symbols with the adjacent text.</text>
        <path id="path6" fill="none" stroke="#00aeef" stroke-width="0.5" d="M 776 1919 L 776 1933"/>
        <g id="g4">
            <path id="path7" fill="#000000" stroke="none" d="M 779.310547 1933.15625 C 779.828125 1933.15625 780.082031 1932.960938 780.267578 1932.414063 L 784.378906 1920.910156 L 784.427734 1920.910156 L 788.548828 1932.414063 C 788.734375 1932.960938 788.988281 1933.15625 789.496094 1933.15625 C 790.013672 1933.15625 790.345703 1932.84375 790.345703 1932.355469 C 790.345703 1932.189453 790.316406 1932.033203 790.238281 1931.828125 L 785.658203 1919.630859 C 785.433594 1919.035156 785.033203 1918.732422 784.408203 1918.732422 C 783.802734 1918.732422 783.392578 1919.025391 783.177734 1919.621094 L 778.597656 1931.837891 C 778.519531 1932.042969 778.490234 1932.199219 778.490234 1932.365234 C 778.490234 1932.853516 778.802734 1933.15625 779.310547 1933.15625 Z M 781.351563 1928.966797 L 787.484375 1928.966797 C 787.884766 1928.966797 788.216797 1928.634766 788.216797 1928.234375 C 788.216797 1927.824219 787.884766 1927.501953 787.484375 1927.501953 L 781.351563 1927.501953 C 780.951172 1927.501953 780.619141 1927.824219 780.619141 1928.234375 C 780.619141 1928.634766 780.951172 1928.966797 781.351563 1928.966797 Z"/>
        </g>
        <path id="path8" fill="none" stroke="#00aeef" stroke-width="0.5" d="M 792.835999 1919 L 792.835999 1933"/>
        <text id="Margins" xml:space="preserve" x="774" y="1957" font-family="Helvetica" font-size="13" font-weight="700" fill="#000000">Margins</text>
        <text id="Leading-and-trailing-margins" xml:space="preserve" x="774" y="1975" font-family="Helvetica" font-size="13" fill="#000000">Leading and trailing margins on the left and right side of each symbol</text>
        <text id="can-be-adjusted-by" xml:space="preserve" x="774" y="1993" font-family="Helvetica" font-size="13" fill="#000000">can be adjusted by modifying the x-location of the margin guidelines.</text>
        <text id="Modifications-are-automatically-applied" xml:space="preserve" x="774" y="2011" font-family="Helvetica" font-size="13" fill="#000000">Modifications are automatically applied proportionally to all</text>
        <text id="scales-and-weights" xml:space="preserve" x="774" y="2029" font-family="Helvetica" font-size="13" fill="#000000">scales and weights.</text>
        <g id="g5">
            <path id="path9" fill="#000000" stroke="none" d="M 1291.841797 1935.626953 L 1293.414063 1937.199219 C 1294.273438 1938.078125 1295.279297 1938.019531 1296.1875 1936.994141 L 1308.326172 1923.351563 L 1307.349609 1922.375 L 1295.298828 1935.910156 C 1294.9375 1936.300781 1294.605469 1936.398438 1294.136719 1935.929688 L 1293.101563 1934.904297 C 1292.642578 1934.445313 1292.740234 1934.113281 1293.140625 1933.742188 L 1306.636719 1921.310547 L 1305.660156 1920.34375 L 1292.046875 1932.863281 C 1291.050781 1933.78125 1290.982422 1934.757813 1291.841797 1935.626953 Z M 1300.816406 1916.134766 C 1300.40625 1916.535156 1300.367188 1917.111328 1300.601563 1917.492188 C 1300.826172 1917.853516 1301.294922 1918.097656 1301.919922 1917.941406 C 1303.091797 1917.609375 1304.439453 1917.462891 1305.699219 1918.126953 L 1305.162109 1919.552734 C 1304.839844 1920.353516 1305.015625 1920.929688 1305.503906 1921.4375 L 1307.554688 1923.498047 C 1308.023438 1923.976563 1308.462891 1923.986328 1308.970703 1923.888672 L 1309.859375 1923.742188 L 1310.376953 1924.25 L 1310.337891 1924.699219 C 1310.318359 1925.158203 1310.445313 1925.558594 1310.894531 1925.998047 L 1311.568359 1926.662109 C 1312.027344 1927.121094 1312.671875 1927.160156 1313.130859 1926.701172 L 1315.728516 1924.09375 C 1316.1875 1923.625 1316.158203 1923.019531 1315.689453 1922.560547 L 1315.005859 1921.876953 C 1314.566406 1921.4375 1314.195313 1921.271484 1313.736328 1921.300781 L 1313.267578 1921.349609 L 1312.779297 1920.861328 L 1312.984375 1919.923828 C 1313.111328 1919.376953 1312.935547 1918.927734 1312.408203 1918.400391 L 1310.152344 1916.164063 C 1307.564453 1913.595703 1303.033203 1913.957031 1300.816406 1916.134766 Z M 1302.232422 1916.544922 C 1303.990234 1915.265625 1307.427734 1915.412109 1308.970703 1916.935547 L 1311.431641 1919.376953 C 1311.636719 1919.582031 1311.675781 1919.738281 1311.617188 1920.041016 L 1311.324219 1921.369141 L 1312.671875 1922.707031 L 1313.550781 1922.658203 C 1313.775391 1922.648438 1313.853516 1922.667969 1314.019531 1922.833984 L 1314.527344 1923.332031 L 1312.359375 1925.5 L 1311.861328 1925.001953 C 1311.695313 1924.826172 1311.666016 1924.757813 1311.675781 1924.523438 L 1311.734375 1923.654297 L 1310.396484 1922.306641 L 1309.029297 1922.541016 C 1308.746094 1922.599609 1308.619141 1922.580078 1308.394531 1922.365234 L 1306.607422 1920.587891 C 1306.392578 1920.382813 1306.373047 1920.246094 1306.509766 1919.914063 L 1307.427734 1917.619141 C 1306.207031 1916.349609 1304.019531 1916.115234 1302.310547 1916.701172 C 1302.173828 1916.75 1302.125 1916.623047 1302.232422 1916.544922 Z"/>
        </g>
        <text id="Exporting" xml:space="preserve" x="1287" y="1957" font-family="Helvetica" font-size="13" font-weight="700" fill="#000000">Exporting</text>
        <text id="Symbols-should-be-outlined" xml:space="preserve" x="1287" y="1975" font-family="Helvetica" font-size="13" fill="#000000">Symbols should be outlined when exporting to ensure the</text>
        <text id="design-is-preserved-when" xml:space="preserve" x="1287" y="1993" font-family="Helvetica" font-size="13" fill="#000000">design is preserved when submitting to Xcode.</text>
        <text id="template-version" xml:space="preserve" x="2948" y="1937" font-family="Helvetica" font-size="13" fill="#000000">Template v.7.0</text>
        <text id="Requires-Xcode-17-or" xml:space="preserve" x="2861" y="1955" font-family="Helvetica" font-size="13" fill="#000000">Requires Xcode 17 or greater</text>
        <text id="Generated-from-ear" xml:space="preserve" x="2919" y="1973" font-family="Helvetica" font-size="13" fill="#000000">Generated from ear</text>
        <text id="Typeset-at-1000-points" xml:space="preserve" x="2898" y="1991" font-family="Helvetica" font-size="13" fill="#000000">Typeset at 100.0 points</text>
        <text id="Small" xml:space="preserve" x="261" y="730" font-family="Helvetica" font-size="13" fill="#000000">Small</text>
        <text id="text1" xml:space="preserve" x="261" y="1160" font-family="Helvetica" font-size="13" fill="#000000">Medium</text>
        <text id="Large" xml:space="preserve" x="261" y="1590" font-family="Helvetica" font-size="13" fill="#000000">Large</text>
    </g>
    <g id="Guides">
        <g id="H-reference">
            <path id="path10" fill="#27aae1" stroke="none" d="M 339.993652 696 L 342.637756 696 L 368.328094 628.867676 L 369.030304 628.867676 L 369.030304 625.541016 L 367.122589 625.541016 Z M 350.688507 671.520142 L 385.981506 671.520142 L 385.231506 669.271484 L 351.438507 669.271484 Z M 394.119598 696 L 396.763702 696 L 369.638214 625.541016 L 368.432587 625.541016 L 368.432587 628.867676 Z"/>
        </g>
        <path id="Baseline-S" fill="none" stroke="#27aae1" stroke-width="0.5" d="M 263 696 L 3036 696"/>
        <path id="Capline-S" fill="none" stroke="#27aae1" stroke-width="0.5" d="M 263 625.541016 L 3036 625.541016"/>
        <g id="g6">
            <path id="path11" fill="#27aae1" stroke="none" d="M 339.993652 1126 L 342.637756 1126 L 368.328094 1058.867676 L 369.030304 1058.867676 L 369.030304 1055.541016 L 367.122589 1055.541016 Z M 350.688507 1101.520142 L 385.981506 1101.520142 L 385.231506 1099.271484 L 351.438507 1099.271484 Z M 394.119598 1126 L 396.763702 1126 L 369.638214 1055.541016 L 368.432587 1055.541016 L 368.432587 1058.867676 Z"/>
        </g>
        <path id="Baseline-M" fill="none" stroke="#27aae1" stroke-width="0.5" d="M 263 1126 L 3036 1126"/>
        <path id="Capline-M" fill="none" stroke="#27aae1" stroke-width="0.5" d="M 263 1055.540039 L 3036 1055.540039"/>
        <g id="g7">
            <path id="path12" fill="#27aae1" stroke="none" d="M 339.993652 1556 L 342.637756 1556 L 368.328094 1488.867676 L 369.030304 1488.867676 L 369.030304 1485.541016 L 367.122589 1485.541016 Z M 350.688507 1531.52002 L 385.981506 1531.52002 L 385.231506 1529.271484 L 351.438507 1529.271484 Z M 394.119598 1556 L 396.763702 1556 L 369.638214 1485.541016 L 368.432587 1485.541016 L 368.432587 1488.867676 Z"/>
        </g>
        <path id="Baseline-L" fill="none" stroke="#27aae1" stroke-width="0.5" d="M 263 1556 L 3036 1556"/>
        <path id="Capline-L" fill="none" stroke="#27aae1" stroke-width="0.5" d="M 263 1485.540039 L 3036 1485.540039"/>
        <path id="right-margin-Black-S" fill="none" stroke="#00aeef" stroke-width="0.5" d="M 2974.340088 600.784912 L 2974.340088 720.120972"/>
        <path id="left-margin-Black-S" fill="none" stroke="#00aeef" stroke-width="0.5" d="M 2892.459961 600.784912 L 2892.459961 720.120972"/>
        <path id="right-margin-Regular-S" fill="none" stroke="#00aeef" stroke-width="0.5" d="M 1487.930054 600.784912 L 1487.930054 720.120972"/>
        <path id="left-margin-Regular-S" fill="none" stroke="#00aeef" stroke-width="0.5" d="M 1411.76001 600.784912 L 1411.76001 720.120972"/>
        <path id="right-margin-Ultralight-S" fill="none" stroke="#00aeef" stroke-width="0.5" d="M 595.594971 600.784912 L 595.594971 720.120972"/>
        <path id="left-margin-Ultralight-S" fill="none" stroke="#00aeef" stroke-width="0.5" d="M 523.828003 600.784912 L 523.828003 720.120972"/>
    </g>
    <g id="Symbols">
        <g id="Black-S">
            <path id="path13" fill="none" stroke="#000000" stroke-width="0.685872" d="M 2910.518799 641.569702 C 2915.135986 636.744629 2922.05542 634.097046 2931.126221 634.619995 C 2941.740479 635.231812 2948.683105 639.979004 2952.681152 646.162964 C 2956.54126 652.134155 2957.446289 659.101318 2956.869141 664.184082 C 2956.002197 671.817627 2953.53418 676.176392 2950.665527 682.078979 C 2947.966309 687.632813 2946.756836 690.889893 2945.840576 694.174194 C 2944.632568 698.504639 2942.345459 707.834717 2933.585693 711.403809 C 2929.23999 713.174561 2923.987305 713.791992 2919.044678 712.30188 C 2913.951172 710.766357 2909.508545 707.076538 2906.993652 700.919067 C 2906.106934 698.747803 2907.147949 696.268799 2909.319092 695.38208 C 2911.490234 694.495361 2913.969238 695.536621 2914.855957 697.707642 C 2916.413574 701.521118 2918.885498 703.383179 2921.496338 704.170166 C 2924.257324 705.002686 2927.497559 704.713501 2930.380859 703.538574 C 2934.675781 701.788574 2936.206055 697.103516 2937.659912 691.891968 C 2938.748535 687.990234 2940.169189 684.245972 2943.026855 678.366455 C 2946.042969 672.160522 2947.757813 669.147461 2948.43042 663.22583 C 2948.827148 659.732056 2948.159912 654.813232 2945.548828 650.774048 C 2943.075195 646.947754 2938.646729 643.560669 2930.637451 643.098999 C 2923.544189 642.690186 2919.230225 644.750244 2916.655029 647.441528 C 2913.991699 650.224854 2912.661865 654.234985 2912.661865 658.578125 C 2912.661865 661.314941 2913.856201 664.075317 2915.772705 665.868896 C 2917.578613 667.559082 2920.018311 668.415039 2923.034912 667.603516 C 2925.299561 666.994263 2927.629395 668.336304 2928.238525 670.601196 C 2928.8479 672.865967 2927.505859 675.195923 2925.240967 675.805176 C 2919.17627 677.436523 2913.75415 675.612183 2909.969238 672.070068 C 2906.294922 668.631226 2904.168701 663.607056 2904.168701 658.578125 C 2904.168701 652.617676 2905.989746 646.302734 2910.518799 641.569702 Z"/>
            <path id="path14" fill="none" stroke="#000000" stroke-width="0.685872" d="M 2896.418457 625.208618 C 2907.641602 609.199463 2923.966797 607.022217 2935.055176 607.595825 C 2941.618896 607.935425 2949.262939 609.762939 2956.241455 613.009644 C 2963.181641 616.238403 2969.964355 621.108643 2974.172119 627.875488 C 2978.016846 634.05896 2980.276367 639.619019 2980.947266 649.594727 C 2981.170898 652.918701 2980.650146 656.987061 2980.017334 660.447876 C 2979.367188 664.00061 2978.500244 667.42749 2977.794678 669.658813 C 2976.851807 672.640381 2973.67041 674.292969 2970.688965 673.350098 C 2967.70752 672.407227 2966.054688 669.22583 2966.997559 666.244385 C 2967.543701 664.518188 2968.30249 661.556396 2968.87793 658.410156 C 2969.470215 655.171875 2969.774902 652.230591 2969.648682 650.354614 C 2969.110352 642.353516 2967.487793 638.571045 2964.55542 633.855103 C 2961.897949 629.580933 2957.199219 625.944946 2951.464844 623.276978 C 2945.768555 620.626831 2939.544434 619.167236 2934.469971 618.904785 C 2925.255127 618.427979 2913.718506 620.25769 2905.690674 631.708862 C 2903.895752 634.269409 2900.36499 634.890015 2897.804443 633.095093 C 2895.243896 631.299927 2894.623535 627.769043 2896.418457 625.208618 Z"/>
        </g>
        <g id="Regular-S">
            <path id="path15" fill="none" stroke="#000000" stroke-width="0.655844" d="M 1428.856567 642.562866 C 1433.271484 637.949097 1439.887939 635.41748 1448.56189 635.91748 C 1458.711304 636.502441 1465.349976 641.041748 1469.172974 646.955078 C 1472.864136 652.664917 1473.729614 659.326904 1473.177612 664.187256 C 1472.348755 671.486572 1469.988647 675.654541 1467.245605 681.298584 C 1464.664551 686.609375 1463.508057 689.723755 1462.631958 692.864258 C 1461.476685 697.005127 1459.289673 705.926758 1450.913574 709.3396 C 1446.758179 711.032715 1441.735352 711.623169 1437.009033 710.198364 C 1432.138794 708.72998 1427.890503 705.201782 1425.485718 699.313843 C 1424.637695 697.237671 1425.633301 694.867188 1427.709351 694.019287 C 1429.785522 693.171387 1432.155884 694.167114 1433.003784 696.243164 C 1434.493164 699.889526 1436.857056 701.670166 1439.353394 702.422729 C 1441.993652 703.218628 1445.091919 702.942139 1447.849121 701.818726 C 1451.955933 700.145386 1453.419312 695.665405 1454.809448 690.682007 C 1455.850342 686.95105 1457.208862 683.370728 1459.941284 677.748657 C 1462.825439 671.814331 1464.46521 668.933228 1465.108276 663.270874 C 1465.487671 659.930054 1464.849731 655.226563 1462.352905 651.364258 C 1459.987549 647.705566 1455.753052 644.466675 1448.094482 644.025269 C 1441.311646 643.634399 1437.186646 645.604126 1434.724121 648.177612 C 1432.17749 650.839111 1430.90564 654.673584 1430.90564 658.82666 C 1430.90564 661.443604 1432.047729 664.08313 1433.880371 665.798218 C 1435.6073 667.414429 1437.940186 668.23291 1440.824585 667.456909 C 1442.990112 666.87439 1445.217896 668.157715 1445.800537 670.323364 C 1446.383057 672.489014 1445.099731 674.716919 1442.934204 675.299438 C 1437.134888 676.859375 1431.950317 675.11499 1428.331177 671.727905 C 1424.817505 668.439575 1422.784424 663.635376 1422.784424 658.82666 C 1422.784424 653.127197 1424.525879 647.088745 1428.856567 642.562866 Z"/>
            <path id="path16" fill="none" stroke="#000000" stroke-width="0.655844" d="M 1415.373535 626.918091 C 1426.105347 611.609863 1441.71582 609.527954 1452.318604 610.076538 C 1458.595093 610.401245 1465.904419 612.148682 1472.577393 615.253174 C 1479.213745 618.340576 1485.699585 622.997681 1489.7229 629.468262 C 1493.399414 635.381104 1495.559937 640.697632 1496.201538 650.236572 C 1496.415405 653.415039 1495.91748 657.305298 1495.312256 660.614624 C 1494.690674 664.011841 1493.861816 667.288574 1493.187012 669.422241 C 1492.285278 672.273193 1489.243286 673.853516 1486.392334 672.951904 C 1483.541382 672.050293 1481.96106 669.008301 1482.862671 666.157349 C 1483.384766 664.506714 1484.110352 661.674561 1484.660767 658.666016 C 1485.227051 655.56958 1485.518311 652.75708 1485.397705 650.963257 C 1484.882935 643.312378 1483.331421 639.695557 1480.527466 635.186035 C 1477.986206 631.098999 1473.493286 627.622192 1468.009888 625.071045 C 1462.562988 622.536987 1456.61145 621.141235 1451.759033 620.890259 C 1442.947632 620.434326 1431.91626 622.18396 1424.239868 633.133789 C 1422.523438 635.582153 1419.147217 636.175659 1416.698853 634.459351 C 1414.250366 632.742798 1413.657104 629.366455 1415.373535 626.918091 Z"/>
        </g>
        <g id="Ultralight-S">
            <path id="path17" fill="none" stroke="#000000" stroke-width="0.627637" d="M 540.234436 643.162354 C 544.459534 638.74707 550.791443 636.324341 559.092285 636.802734 C 568.805237 637.362671 575.158386 641.706787 578.816895 647.365723 C 582.349365 652.829956 583.177551 659.205444 582.649353 663.856689 C 581.856079 670.842163 579.597595 674.830811 576.972473 680.232178 C 574.502441 685.314453 573.395691 688.295044 572.557251 691.300415 C 571.45166 695.263184 569.358704 703.801025 561.342896 707.067139 C 557.366089 708.6875 552.559326 709.252563 548.036316 707.888916 C 543.375488 706.483765 539.309998 703.1073 537.008606 697.472656 C 536.197083 695.485718 537.14978 693.217163 539.136536 692.40564 C 541.123474 691.59436 543.391968 692.547119 544.203308 694.533936 C 545.628723 698.02356 547.890869 699.727539 550.279785 700.447754 C 552.80658 701.209473 555.771545 700.944824 558.410156 699.869751 C 562.340393 698.268311 563.740784 693.981079 565.071167 689.211914 C 566.067322 685.641479 567.367432 682.21521 569.9823 676.834961 C 572.742371 671.155884 574.311646 668.39856 574.927002 662.979736 C 575.2901 659.782715 574.679626 655.281372 572.290161 651.585205 C 570.02655 648.083862 565.974182 644.984253 558.644958 644.56189 C 552.15387 644.187744 548.206238 646.072876 545.84967 648.535645 C 543.412537 651.082642 542.195435 654.752319 542.195435 658.726685 C 542.195435 661.231079 543.288452 663.75708 545.042175 665.398438 C 546.694885 666.94519 548.927368 667.728394 551.687805 666.98584 C 553.760193 666.428345 555.892151 667.656372 556.449646 669.728882 C 557.007202 671.801392 555.779114 673.933472 553.706726 674.491089 C 548.156799 675.983887 543.19519 674.314453 539.731628 671.07312 C 536.369141 667.92627 534.423462 663.328613 534.423462 658.726685 C 534.423462 653.272339 536.090027 647.49353 540.234436 643.162354 Z"/>
            <path id="path18" fill="none" stroke="#000000" stroke-width="0.627637" d="M 527.331299 628.19043 C 537.601624 613.540649 552.540649 611.548218 562.687439 612.073242 C 568.69397 612.383911 575.688965 614.056274 582.07489 617.027222 C 588.425842 619.981934 594.632751 624.438721 598.483093 630.630981 C 602.001404 636.289429 604.069031 641.377319 604.682983 650.506104 C 604.887634 653.547729 604.411255 657.270752 603.83197 660.437744 C 603.237183 663.688843 602.443909 666.824707 601.798218 668.866577 C 600.935242 671.594971 598.023987 673.107178 595.295654 672.244385 C 592.567322 671.381592 591.055054 668.470337 591.917908 665.742065 C 592.41748 664.162354 593.111877 661.452026 593.638611 658.572998 C 594.180542 655.609619 594.45929 652.918091 594.343872 651.201416 C 593.851257 643.879639 592.366455 640.418457 589.683044 636.102783 C 587.251099 632.191528 582.951416 628.864258 577.703796 626.422852 C 572.491211 623.997803 566.795654 622.661987 562.151917 622.421875 C 553.719543 621.985596 543.162537 623.659912 535.816345 634.138794 C 534.173706 636.481934 530.942749 637.049927 528.599609 635.407349 C 526.256531 633.764648 525.688721 630.533569 527.331299 628.19043 Z"/>
        </g>
    </g>
    <g id="QuickActionIcon"/>
</svg>
