<svg width="20" height="20" viewBox="0 0 20 20" fill="none" xmlns="http://www.w3.org/2000/svg">
<path d="M9.30762 1.25391C9.60091 0.582323 10.526 0.582323 10.8193 1.25391L12.9453 6.12109V6.12207C13.0567 6.37875 13.3019 6.55267 13.5811 6.57227L18.4756 6.91602C19.1732 6.96497 19.5279 7.85872 18.9893 8.38672L15.2188 12.084C15.2068 12.0957 15.1898 12.1108 15.1621 12.1338C14.9223 12.3324 14.8302 12.6584 14.9307 12.9531C14.9431 12.9898 14.9529 13.0247 14.96 13.0576L16.0654 18.2051C16.2283 18.9637 15.438 19.4858 14.8428 19.1318L10.3828 16.4795C10.1763 16.3567 9.92567 16.3407 9.70801 16.4326L9.61621 16.4795L5.15723 19.1318C4.56199 19.4857 3.77171 18.9637 3.93457 18.2051L5.04004 13.0576C5.04698 13.0253 5.05662 12.9905 5.06934 12.9531C5.16976 12.6584 5.0777 12.3324 4.83789 12.1338C4.81216 12.1125 4.79438 12.0969 4.78125 12.084L1.01074 8.38672C0.472174 7.85878 0.826768 6.965 1.52441 6.91602L6.5498 6.5625C6.8281 6.54283 7.07287 6.3709 7.18457 6.11523L9.30762 1.25391Z" stroke="#C4C4C4" stroke-width="1.5" stroke-linejoin="round"/>
</svg>
